<?xml version="1.0" encoding="UTF-8"?>
<svg id="_Слой_1" data-name="Слой_1" xmlns="http://www.w3.org/2000/svg" version="1.1" viewBox="0 0 2048 2048">
  <!-- Generator: Adobe Illustrator 30.1.0, SVG Export Plug-In . SVG Version: 2.1.1 Build 136)  -->
  <defs>
    <style>
      .st0 {
        fill: #010101;
      }
    </style>
  </defs>
  <rect width="2048" height="2048" fill="none"/>
  <g id="Logo">
    <g>
      <path class="st0" d="M1201.97,1486.42c-54.94,37.62-115.91,64.12-182.84,79.5-66.95,15.4-135.34,16.75-205.2,4.04-70.83-12.88-134.62-38.26-191.36-76.15-27.59-18.4-52.88-38.8-75.96-61.13,115.19,134.31,286.01,219.52,476.83,219.52,98.07,0,190.87-22.5,273.57-62.59l-86.96-109.02c-2.7,1.93-5.33,3.94-8.07,5.82Z"/>
      <path class="st0" d="M1463.72,898.48l167.69-32.5s0,0,0,0c-22.69-87.48-63.83-167.48-118.91-235.78h0s-48.78,268.27-48.78,268.27Z"/>
      <path class="st0" d="M738.93,1097.79c4.84,22.94,13.32,43.76,25.46,62.5,12.12,18.74,27.54,34.59,46.24,47.5,18.7,12.94,39.7,21.51,62.98,25.74,18.18,3.31,36.12,3.57,53.85.98-1.75-22.32-2.96-69.35,11.87-114.63.48-1.9,1.05-3.7,1.67-5.42,24.44-77.64,61.15-71.33,61.15-71.33,23.53-33.36,51.23-36.26,51.23-36.26l38.23,3.39,107.13-589.23c-55.66-16.15-114.44-24.98-175.31-24.98-327.49,0-596.31,250.68-625.35,570.6l339.92,61.8c-4.24,23.29-3.93,46.41.92,69.34Z"/>
      <path class="st1" d="M1968.62,1056.84s-.03.04-.04.06c.01-.02.05-.07.05-.07h-.01Z"/>
    </g>
    <path class="st0" d="M1245.23,963.21s-78.19-4.9-85.69,65.08h0c23.95-25.98,52.22-47.62,83.55-63.97l2.14-1.12Z"/>
    <path class="st0" d="M1067.73,1020.16s-25.91,2.72-47.92,33.92c0,0,70.51,49.02,93.58,17.92,0,0-86.71-23.05-45.67-51.83Z"/>
    <path class="st0" d="M961.05,1125.86s29.56,82.86,40.24,137.23c0,0-50.99-178.82-50.04-17.53,0,0-9.25-61.51,9.8-119.7Z"/>
    <path class="st0" d="M1137.58,1408.57c118.79-37.92-114.79-120.73-117.76-123.4l6.49,8.69c9.4,12.59,20.22,24.14,32.8,33.54.15.11.29.22.44.33l49.61,36.83c10.86,8.06,19.15,19.1,23.87,31.77l4.56,12.24Z"/>
    <path class="st0" d="M1957.91,921.1c-18.61-22.22-112.48-24.28-328.4,121.25,3.39,2.41,6.8,4.72,10.14,7.29,65.19,50.34,102.7,118.82,103.41,177.44,27.32-22.98,107.13-94.02,192.55-206.92,37.38-49.4,35.67-83.1,22.31-99.06Z"/>
    <path class="st0" d="M1732.67,1250.47c-46.15-4.09-114.09-214.89-114.09-214.89,0,0,144.16-172.12-97.87-48.86-103.28-40.54-264.14-70.59-360.4,75.62,0,0-28.51,126.6,105.82,258,0,0,7.08,63.99-98.64,89.91,0,0,335.6,192.54,451.16,34.89l115.56-157.65s37.07,16.12,189.57-220.6c0,0-144.95,187.66-191.1,183.57ZM1263.39,1049.5s-24.3-34.72-45.06-15.99c0,0,15.69-48.51,45.06,15.99ZM1206.18,1088.19c37.21,28.86,66.83-18.98,66.83-18.98l12.15,14.68c-53.92,43.79-78.98,4.3-78.98,4.3Z"/>
  </g>
</svg>