<?xml version="1.0" encoding="UTF-8"?>
<svg id="_Слой_1" data-name="Слой_1" xmlns="http://www.w3.org/2000/svg" version="1.1" viewBox="0 0 605.25 208.32">
  <!-- Generator: Adobe Illustrator 30.1.0, SVG Export Plug-In . SVG Version: 2.1.1 Build 136)  -->
  <defs>
    <style>
      .st0 {
        fill: #0b0b0c;
      }
    </style>
  </defs>
  <g id="Text">
    <path class="st0" d="M276.74,103.69c0-11.67,8.44-19.29,24.21-19.29,14.67,0,22.23,7.26,22.23,19.15v1.69h-28.61c.37,5.43,3.37,8.14,8.22,8.14,4.48,0,6.31-1.91,7.7-4.47l13.28,2.42c-2.05,5.43-8.51,11.67-22.01,11.67-16.65,0-25.02-7.7-25.02-19.29ZM307.77,99.28c-.29-4.84-2.57-6.97-6.09-6.97-3.81,0-6.46,2.27-6.9,6.97h12.99Z"/>
    <path class="st0" d="M424.85,103.69c0-11.67,8.44-19.29,24.21-19.29,14.67,0,22.23,7.26,22.23,19.15v1.69h-28.61c.37,5.43,3.37,8.14,8.22,8.14,4.47,0,6.31-1.91,7.7-4.47l13.28,2.42c-2.05,5.43-8.51,11.67-22.01,11.67-16.65,0-25.02-7.7-25.02-19.29ZM455.88,99.28c-.29-4.84-2.57-6.97-6.09-6.97-3.82,0-6.46,2.27-6.9,6.97h12.99Z"/>
    <path class="st0" d="M474.51,70.67h16.36v51.35h-16.36v-51.35Z"/>
    <path class="st0" d="M495.34,70.67h16.36v10.05h-16.36v-10.05ZM495.34,85.34h16.36v36.68h-16.36v-36.68Z"/>
    <path class="st0" d="M276.74,103.69c0-11.67,8.44-19.29,24.21-19.29,14.67,0,22.23,7.26,22.23,19.15v1.69h-28.61c.37,5.43,3.37,8.14,8.22,8.14,4.48,0,6.31-1.91,7.7-4.47l13.28,2.42c-2.05,5.43-8.51,11.67-22.01,11.67-16.65,0-25.02-7.7-25.02-19.29ZM307.77,99.28c-.29-4.84-2.57-6.97-6.09-6.97-3.81,0-6.46,2.27-6.9,6.97h12.99Z"/>
    <path class="st0" d="M356.04,84.39c-6.97,0-11.22,3.36-13.28,6.28v-5.33h-16.36v51.36h16.36v-18.51c1.89,2.24,6.13,4.79,12.54,4.79,10.71,0,17.75-6.97,17.75-19.52s-6.97-19.07-17.02-19.07ZM349.51,113.88c-3.81,0-6.7-3.3-6.7-9.9s2.89-10.12,6.77-10.12c3.3,0,6.43,2.42,6.43,9.76,0,7.85-3.2,10.27-6.5,10.27Z"/>
    <path class="st0" d="M405.71,84.39c-6.97,0-11.22,3.36-13.28,6.28v-5.33h-16.36v51.36h16.36v-18.51c1.89,2.24,6.13,4.79,12.54,4.79,10.71,0,17.75-6.97,17.75-19.52s-6.97-19.07-17.02-19.07ZM399.18,113.88c-3.82,0-6.7-3.3-6.7-9.9s2.89-10.12,6.77-10.12c3.3,0,6.43,2.42,6.43,9.76,0,7.85-3.2,10.27-6.5,10.27Z"/>
    <polygon class="st0" points="222.34 70.67 222.34 82.12 250.8 82.12 222.34 110.58 222.34 110.58 222.34 122.03 273.91 122.03 273.91 110.58 245.48 110.58 273.94 82.12 273.95 82.12 273.95 70.67 222.34 70.67"/>
    <path class="st0" d="M547.8,84.39c-7.28,0-12.59,3.65-15.26,6.06v-5.1h-16.36v36.68h16.36v-25.53c1.54-1.03,4.11-2.42,6.82-2.42s4.33,1.54,4.33,4.33v23.62h16.43v-26.41c0-7.04-4.47-11.22-12.33-11.22Z"/>
  </g>
  <g id="Logo">
    <g>
      <path class="st0" d="M120.19,146.65c-5.11,3.5-10.77,5.96-17,7.39-6.22,1.43-12.58,1.56-19.07.38-6.58-1.2-12.51-3.56-17.79-7.08-2.56-1.71-4.92-3.61-7.06-5.68,10.71,12.48,26.59,20.41,44.32,20.41,9.12,0,17.74-2.09,25.43-5.82l-8.08-10.13c-.25.18-.5.37-.75.54Z"/>
      <path class="st0" d="M144.52,91.99l15.59-3.02s0,0,0,0c-2.11-8.13-5.93-15.57-11.05-21.92h0s-4.53,24.94-4.53,24.94Z"/>
      <path class="st0" d="M77.15,110.52c.45,2.13,1.24,4.07,2.37,5.81,1.13,1.74,2.56,3.22,4.3,4.42,1.74,1.2,3.69,2,5.85,2.39,1.69.31,3.36.33,5.01.09-.16-2.07-.28-6.45,1.1-10.66.04-.18.1-.34.16-.5,2.27-7.22,5.68-6.63,5.68-6.63,2.19-3.1,4.76-3.37,4.76-3.37l3.55.31,9.96-54.77c-5.17-1.5-10.64-2.32-16.3-2.32-30.44,0-55.43,23.3-58.13,53.04l31.6,5.75c-.39,2.17-.37,4.31.09,6.45Z"/>
      <polygon class="st0" points="191.45 106.71 191.45 106.72 191.45 106.71 191.45 106.71"/>
    </g>
    <path class="st0" d="M124.21,98.01s-7.27-.46-7.97,6.05h0c2.23-2.42,4.85-4.43,7.77-5.95l.2-.1Z"/>
    <path class="st0" d="M107.71,103.3s-2.41.25-4.45,3.15c0,0,6.55,4.56,8.7,1.67,0,0-8.06-2.14-4.24-4.82Z"/>
    <path class="st0" d="M97.79,113.13s2.75,7.7,3.74,12.76c0,0-4.74-16.62-4.65-1.63,0,0-.86-5.72.91-11.13Z"/>
    <path class="st0" d="M114.2,139.41c11.04-3.53-10.67-11.22-10.95-11.47l.6.81c.87,1.17,1.88,2.24,3.05,3.12.01.01.03.02.04.03l4.61,3.42c1.01.75,1.78,1.78,2.22,2.95l.42,1.14Z"/>
    <path class="st0" d="M190.46,94.1c-1.73-2.07-10.46-2.26-30.53,11.27.31.22.63.44.94.68,6.06,4.68,9.55,11.04,9.61,16.49,2.54-2.14,9.96-8.74,17.9-19.23,3.47-4.59,3.32-7.72,2.07-9.21Z"/>
    <path class="st0" d="M169.52,124.71c-4.29-.38-10.61-19.98-10.61-19.98,0,0,13.4-16-9.1-4.54-9.6-3.77-24.55-6.56-33.5,7.03,0,0-2.65,11.77,9.84,23.98,0,0,.66,5.95-9.17,8.36,0,0,31.2,17.9,41.94,3.24l10.74-14.65s3.45,1.5,17.62-20.51c0,0-13.47,17.44-17.76,17.06ZM125.9,106.03s-2.26-3.23-4.19-1.49c0,0,1.46-4.51,4.19,1.49ZM120.58,109.63c3.46,2.68,6.21-1.76,6.21-1.76l1.13,1.36c-5.01,4.07-7.34.4-7.34.4Z"/>
  </g>
</svg>